<svg xmlns="http://www.w3.org/2000/svg" xmlns:xlink="http://www.w3.org/1999/xlink" version="1.1" width="256" height="256" viewBox="0 0 256 256" xml:space="preserve">

<defs>
</defs>
<g style="stroke: none; stroke-width: 0; stroke-dasharray: none; stroke-linecap: butt; stroke-linejoin: miter; stroke-miterlimit: 10; fill: none; fill-rule: nonzero; opacity: 1;" transform="translate(1.4065934065934016 1.4065934065934016) scale(2.81 2.81)" >
	<path d="M 61.739 89 H 9.854 c -3.394 0 -6.146 -2.751 -6.146 -6.146 V 14.654 c 0 -3.394 2.751 -6.146 6.146 -6.146 h 51.884 c 3.394 0 6.146 2.751 6.146 6.146 v 68.201 C 67.884 86.249 65.133 89 61.739 89 z" style="stroke: none; stroke-width: 1; stroke-dasharray: none; stroke-linecap: butt; stroke-linejoin: miter; stroke-miterlimit: 10; fill: rgb(237,233,210); fill-rule: nonzero; opacity: 1;" transform=" matrix(1 0 0 1 0 0) " stroke-linecap="round" />
	<path d="M 61.739 8.508 H 9.854 c -3.394 0 -6.146 2.751 -6.146 6.146 v 10.584 h 64.175 V 14.654 C 67.884 11.26 65.133 8.508 61.739 8.508 z" style="stroke: none; stroke-width: 1; stroke-dasharray: none; stroke-linecap: butt; stroke-linejoin: miter; stroke-miterlimit: 10; fill: rgb(242,109,122); fill-rule: nonzero; opacity: 1;" transform=" matrix(1 0 0 1 0 0) " stroke-linecap="round" />
	<path d="M 61.738 90 H 9.854 c -3.94 0 -7.146 -3.205 -7.146 -7.146 V 14.654 c 0 -3.94 3.206 -7.146 7.146 -7.146 h 51.884 c 3.94 0 7.146 3.206 7.146 7.146 v 68.201 C 68.884 86.795 65.679 90 61.738 90 z M 9.854 9.508 c -2.837 0 -5.146 2.308 -5.146 5.146 v 68.201 C 4.708 85.691 7.017 88 9.854 88 h 51.884 c 2.837 0 5.146 -2.309 5.146 -5.146 V 14.654 c 0 -2.837 -2.309 -5.146 -5.146 -5.146 H 9.854 z" style="stroke: none; stroke-width: 1; stroke-dasharray: none; stroke-linecap: butt; stroke-linejoin: miter; stroke-miterlimit: 10; fill: rgb(0,0,0); fill-rule: nonzero; opacity: 1;" transform=" matrix(1 0 0 1 0 0) " stroke-linecap="round" />
	<path d="M 48.424 41.132 H 18.595 c -0.552 0 -1 -0.448 -1 -1 s 0.448 -1 1 -1 h 29.829 c 0.553 0 1 0.448 1 1 S 48.977 41.132 48.424 41.132 z" style="stroke: none; stroke-width: 1; stroke-dasharray: none; stroke-linecap: butt; stroke-linejoin: miter; stroke-miterlimit: 10; fill: rgb(0,0,0); fill-rule: nonzero; opacity: 1;" transform=" matrix(1 0 0 1 0 0) " stroke-linecap="round" />
	<path d="M 31.472 58.328 H 18.595 c -0.552 0 -1 -0.447 -1 -1 s 0.448 -1 1 -1 h 12.877 c 0.552 0 1 0.447 1 1 S 32.024 58.328 31.472 58.328 z" style="stroke: none; stroke-width: 1; stroke-dasharray: none; stroke-linecap: butt; stroke-linejoin: miter; stroke-miterlimit: 10; fill: rgb(0,0,0); fill-rule: nonzero; opacity: 1;" transform=" matrix(1 0 0 1 0 0) " stroke-linecap="round" />
	<path d="M 74.123 27.403 L 39.839 59.512 l -4.628 15.06 l 15.331 -3.632 l 34.284 -32.109 c 1.867 -1.748 1.963 -4.679 0.214 -6.546 l -4.372 -4.668 C 78.92 25.75 75.99 25.654 74.123 27.403 z" style="stroke: none; stroke-width: 1; stroke-dasharray: none; stroke-linecap: butt; stroke-linejoin: miter; stroke-miterlimit: 10; fill: rgb(84,160,209); fill-rule: nonzero; opacity: 1;" transform=" matrix(1 0 0 1 0 0) " stroke-linecap="round" />
	<path d="M 76.778 46.368 L 66.075 34.94 l 8.048 -7.537 c 1.867 -1.748 4.797 -1.652 6.546 0.214 l 4.372 4.668 c 1.748 1.867 1.652 4.797 -0.214 6.546 L 76.778 46.368 z" style="stroke: none; stroke-width: 1; stroke-dasharray: none; stroke-linecap: butt; stroke-linejoin: miter; stroke-miterlimit: 10; fill: rgb(242,109,122); fill-rule: nonzero; opacity: 1;" transform=" matrix(1 0 0 1 0 0) " stroke-linecap="round" />
	<path d="M 35.211 75.572 c -0.273 0 -0.539 -0.112 -0.73 -0.316 c -0.245 -0.262 -0.331 -0.635 -0.226 -0.978 l 4.628 -15.061 c 0.051 -0.166 0.145 -0.316 0.272 -0.436 l 34.284 -32.109 c 2.267 -2.122 5.837 -2.005 7.959 0.261 l 4.371 4.668 c 1.028 1.098 1.568 2.53 1.519 4.034 c -0.049 1.503 -0.681 2.897 -1.778 3.925 L 51.226 71.669 c -0.127 0.119 -0.283 0.203 -0.453 0.243 l -15.331 3.633 C 35.366 75.563 35.288 75.572 35.211 75.572 z M 40.717 60.06 L 36.68 73.196 l 13.373 -3.169 l 34.09 -31.927 c 0.708 -0.663 1.115 -1.562 1.146 -2.531 c 0.032 -0.97 -0.315 -1.893 -0.979 -2.601 l -4.371 -4.668 c -1.37 -1.462 -3.671 -1.538 -5.133 -0.168 l 0 0 L 40.717 60.06 z M 74.123 27.403 h 0.01 H 74.123 z" style="stroke: none; stroke-width: 1; stroke-dasharray: none; stroke-linecap: butt; stroke-linejoin: miter; stroke-miterlimit: 10; fill: rgb(0,0,0); fill-rule: nonzero; opacity: 1;" transform=" matrix(1 0 0 1 0 0) " stroke-linecap="round" />
	<path d="M 76.778 47.368 c -0.267 0 -0.533 -0.106 -0.729 -0.316 L 65.346 35.624 c -0.182 -0.193 -0.278 -0.451 -0.27 -0.716 c 0.008 -0.265 0.122 -0.516 0.315 -0.697 l 8.048 -7.537 c 2.267 -2.122 5.837 -2.005 7.959 0.261 l 4.371 4.668 c 1.028 1.098 1.568 2.53 1.519 4.034 c -0.049 1.503 -0.681 2.897 -1.778 3.925 l -8.048 7.537 C 77.269 47.278 77.023 47.368 76.778 47.368 z M 67.488 34.986 l 9.336 9.968 l 7.318 -6.854 c 0.708 -0.663 1.115 -1.562 1.146 -2.531 c 0.032 -0.97 -0.315 -1.893 -0.979 -2.601 l -4.371 -4.668 c -1.37 -1.462 -3.671 -1.538 -5.133 -0.168 L 67.488 34.986 z" style="stroke: none; stroke-width: 1; stroke-dasharray: none; stroke-linecap: butt; stroke-linejoin: miter; stroke-miterlimit: 10; fill: rgb(0,0,0); fill-rule: nonzero; opacity: 1;" transform=" matrix(1 0 0 1 0 0) " stroke-linecap="round" />
	<path d="M 27.813 74.792 h -9.218 c -0.552 0 -1 -0.447 -1 -1 s 0.448 -1 1 -1 h 9.218 c 0.552 0 1 0.447 1 1 S 28.366 74.792 27.813 74.792 z" style="stroke: none; stroke-width: 1; stroke-dasharray: none; stroke-linecap: butt; stroke-linejoin: miter; stroke-miterlimit: 10; fill: rgb(0,0,0); fill-rule: nonzero; opacity: 1;" transform=" matrix(1 0 0 1 0 0) " stroke-linecap="round" />
	<path d="M 67.884 26.237 H 3.708 c -0.552 0 -1 -0.448 -1 -1 V 14.654 c 0 -3.94 3.206 -7.146 7.146 -7.146 h 51.884 c 3.94 0 7.146 3.206 7.146 7.146 v 10.583 C 68.884 25.79 68.437 26.237 67.884 26.237 z M 4.708 24.237 h 62.175 v -9.583 c 0 -2.837 -2.309 -5.146 -5.146 -5.146 H 9.854 c -2.837 0 -5.146 2.308 -5.146 5.146 V 24.237 z" style="stroke: none; stroke-width: 1; stroke-dasharray: none; stroke-linecap: butt; stroke-linejoin: miter; stroke-miterlimit: 10; fill: rgb(0,0,0); fill-rule: nonzero; opacity: 1;" transform=" matrix(1 0 0 1 0 0) " stroke-linecap="round" />
	<path d="M 35.796 16.958 c -0.552 0 -1 -0.448 -1 -1 V 1 c 0 -0.552 0.448 -1 1 -1 s 1 0.448 1 1 v 14.958 C 36.796 16.51 36.349 16.958 35.796 16.958 z" style="stroke: none; stroke-width: 1; stroke-dasharray: none; stroke-linecap: butt; stroke-linejoin: miter; stroke-miterlimit: 10; fill: rgb(0,0,0); fill-rule: nonzero; opacity: 1;" transform=" matrix(1 0 0 1 0 0) " stroke-linecap="round" />
	<path d="M 52.261 16.958 c -0.553 0 -1 -0.448 -1 -1 V 1 c 0 -0.552 0.447 -1 1 -1 s 1 0.448 1 1 v 14.958 C 53.261 16.51 52.813 16.958 52.261 16.958 z" style="stroke: none; stroke-width: 1; stroke-dasharray: none; stroke-linecap: butt; stroke-linejoin: miter; stroke-miterlimit: 10; fill: rgb(0,0,0); fill-rule: nonzero; opacity: 1;" transform=" matrix(1 0 0 1 0 0) " stroke-linecap="round" />
	<path d="M 19.332 16.958 c -0.552 0 -1 -0.448 -1 -1 V 1 c 0 -0.552 0.448 -1 1 -1 s 1 0.448 1 1 v 14.958 C 20.332 16.51 19.884 16.958 19.332 16.958 z" style="stroke: none; stroke-width: 1; stroke-dasharray: none; stroke-linecap: butt; stroke-linejoin: miter; stroke-miterlimit: 10; fill: rgb(0,0,0); fill-rule: nonzero; opacity: 1;" transform=" matrix(1 0 0 1 0 0) " stroke-linecap="round" />
</g>
</svg>